<?xml version="1.0" encoding="UTF-8" standalone="no"?>
<svg
   width="24"
   height="24"
   viewBox="0 0 24 24"
   version="1.1"
   id="svg1179"
   sodipodi:docname="book-close-bold-teal-fill.svg"
   inkscape:version="1.2.2 (b0a8486541, 2022-12-01)"
   xmlns:inkscape="http://www.inkscape.org/namespaces/inkscape"
   xmlns:sodipodi="http://sodipodi.sourceforge.net/DTD/sodipodi-0.dtd"
   xmlns="http://www.w3.org/2000/svg"
   xmlns:svg="http://www.w3.org/2000/svg">
  <defs
     id="defs1183">
    <linearGradient
       id="linearGradient3737"
       inkscape:swatch="solid">
      <stop
         style="stop-color:#0000ff;stop-opacity:1;"
         offset="0"
         id="stop3735" />
    </linearGradient>
    <linearGradient
       id="linearGradient2899"
       inkscape:swatch="solid">
      <stop
         style="stop-color:#808080;stop-opacity:1;"
         offset="0"
         id="stop2897" />
    </linearGradient>
  </defs>
  <sodipodi:namedview
     id="namedview1181"
     pagecolor="#ffffff"
     bordercolor="#000000"
     borderopacity="0.25"
     inkscape:showpageshadow="2"
     inkscape:pageopacity="0.0"
     inkscape:pagecheckerboard="0"
     inkscape:deskcolor="#d1d1d1"
     showgrid="false"
     inkscape:zoom="13.906433"
     inkscape:cx="4.566232"
     inkscape:cy="11.21783"
     inkscape:window-width="1536"
     inkscape:window-height="827"
     inkscape:window-x="0"
     inkscape:window-y="201"
     inkscape:window-maximized="1"
     inkscape:current-layer="svg1179" />
  <path
     fill="currentColor"
     d="M 20.15,4 A 0.5,0.5 0 0 1 19.75,3.51 V 2 a 2,2 0 0 0 -2,-2 H 5.25 a 3,3 0 0 0 -3,3 v 18 a 3,3 0 0 0 3,3 h 14.5 a 2,2 0 0 0 2,-2 V 6 a 2,2 0 0 0 -1.6,-2 m -2.9,9.25 a 0.26,0.26 0 0 1 -0.43,0.18 l -1.89,-1.9 a 0.27,0.27 0 0 0 -0.36,0 l -1.89,1.9 a 0.26,0.26 0 0 1 -0.28,0 0.25,0.25 0 0 1 -0.15,-0.23 V 5.75 A 0.25,0.25 0 0 1 12.5,5.5 H 17 a 0.25,0.25 0 0 1 0.25,0.25 z m 0.5,-9.54 A 0.25,0.25 0 0 1 17.5,4 H 5.25 a 1,1 0 0 1 0,-2 H 17.5 a 0.25,0.25 0 0 1 0.25,0.25 z"
     id="path1177"
     style="opacity:1;mix-blend-mode:normal;fill:#008080;fill-opacity:1;fill-rule:evenodd;stroke:none;stroke-width:1.00157;stroke-dasharray:none;stroke-opacity:1" />
</svg>
